<svg xmlns="http://www.w3.org/2000/svg" width="24" height="24" viewBox="0 0 24 24"><defs><style>.a{fill:#fff;}.b{fill:#3c4cea;}</style></defs><g transform="translate(0.716 4.813)"><rect class="a" width="24" height="24" transform="translate(-0.716 -4.813)"/><g transform="translate(-0.716 -0.719)"><path class="b" d="M234.192,16.139a2.041,2.041,0,0,1-1.9-1.277L227.471,2.744A2,2,0,0,1,228.627.139a2.052,2.052,0,0,1,2.646,1.139l2.81,7.064,2.482-6.994a2.053,2.053,0,0,1,3.774-.194l5.733,11.983a2,2,0,0,1-.977,2.676,2.055,2.055,0,0,1-2.717-.962l-3.605-7.536-2.653,7.477a2.039,2.039,0,0,1-1.889,1.347h-.038" transform="translate(-222.595 0)"/><path class="b" d="M1.543,453.221.089,456.546c-.348.795.363,1.635,1.383,1.635H4.445c1.029,0,1.74-.853,1.376-1.651L4.3,453.2a1.593,1.593,0,0,0-2.759.016" transform="translate(0 -442.042)"/></g></g></svg>