<svg xmlns="http://www.w3.org/2000/svg" width="24" height="24" viewBox="0 0 24 24"><defs><style>.a{opacity:0;}</style></defs><g transform="translate(0 0.234)"><rect class="a" width="24" height="24" transform="translate(0 -0.234)"/><path d="M173.943,138.724h-3.594v2.054H172.4a1.027,1.027,0,0,1,1.027,1.027v11.3a1.027,1.027,0,0,1-1.027,1.027H158.026A1.027,1.027,0,0,1,157,153.1V141.8a1.027,1.027,0,0,1,1.027-1.027h2.054v-2.054h-3.594a1.54,1.54,0,0,0-1.54,1.54v14.377a1.54,1.54,0,0,0,1.54,1.54h17.458a1.54,1.54,0,0,0,1.541-1.54V140.264a1.54,1.54,0,0,0-1.541-1.54Zm-8.691,12.323,6.007-5.745-1.452-1.452-3.516,3.127-.049-9.537a.77.77,0,0,0-.77-.77h-.513a.771.771,0,0,0-.77.77v9.537l-3.559-3.127-1.5,1.5,6.126,5.694Z" transform="translate(-153.214 -134.66)"/></g></svg>