<svg xmlns="http://www.w3.org/2000/svg" width="24" height="24" viewBox="0 0 24 24"><defs><style>.a{opacity:0;}</style></defs><g transform="translate(0 0.234)"><rect class="a" width="24" height="24" transform="translate(0 -0.234)"/><path d="M142.137,127.934a.9.9,0,0,1,1.2,1.328l-1.361,1.359h3.645a3.177,3.177,0,0,1,3.175,3.05l0,.127v10.4a3.177,3.177,0,0,1-3.177,3.177H131.177A3.177,3.177,0,0,1,128,144.2V133.8a3.177,3.177,0,0,1,3.177-3.177h3.066l-1.36-1.359a.9.9,0,0,1,1.2-1.329l.068.062,2.626,2.626h2.666L142.068,128Zm3.483,4.42H131.177a1.444,1.444,0,0,0-1.444,1.444v10.4a1.444,1.444,0,0,0,1.444,1.444h14.442a1.444,1.444,0,0,0,1.444-1.444V133.8a1.444,1.444,0,0,0-1.444-1.444Zm-9.534,3.756a.867.867,0,0,1,1.37-.7l4.044,2.887a.866.866,0,0,1,0,1.41l-4.044,2.887a.866.866,0,0,1-1.37-.7Zm1.734,1.683V140.2l1.687-1.2Z" transform="translate(-126.398 -125.785)"/></g></svg>