<svg xmlns="http://www.w3.org/2000/svg" width="25" height="25" viewBox="0 0 25 25"><defs><style>.a{opacity:0;}</style></defs><g transform="translate(0 0.234)"><rect class="a" width="25" height="25" transform="translate(0 -0.234)"/><path d="M94.9,0a.952.952,0,0,1,.949.88l0,.071V2.065c3.863.347,6.86,3.938,6.86,8.269V13.16a5.25,5.25,0,0,0,1.129,3.295l.388.479a1.656,1.656,0,0,1-1.2,2.714h-4.2a4.016,4.016,0,0,1-7.7,0h-4.2a1.655,1.655,0,0,1-1.2-2.714l.388-.48a5.248,5.248,0,0,0,1.128-3.294V10.334c0-4.266,2.908-7.814,6.687-8.251V.952A.952.952,0,0,1,94.9,0Zm1.86,19.648H93.208a2.111,2.111,0,0,0,3.548,0ZM95.233,3.941h-.5c-3,0-5.5,2.757-5.569,6.237l0,.157V13.16a7.148,7.148,0,0,1-1.552,4.492l-.076.092h14.9l-.074-.092a7.134,7.134,0,0,1-1.551-4.3l0-.191V10.334c0-3.554-2.521-6.393-5.571-6.393Z" transform="translate(-82.599 1.126)"/></g></svg>